<?xml version="1.0" encoding="UTF-8"?>
<svg xmlns="http://www.w3.org/2000/svg" xmlns:xlink="http://www.w3.org/1999/xlink" width="16px" height="16px" viewBox="0 0 16 16" version="1.1">
<g id="surface1">
<path style=" stroke:none;fill-rule:nonzero;fill:rgb(54.509807%,36.078432%,96.470588%);fill-opacity:1;" d="M 7.972656 12.59375 C 8.113281 12.324219 8.28125 12.082031 8.417969 11.804688 C 9.785156 9.097656 11.144531 6.386719 12.507812 3.679688 C 12.542969 3.613281 12.574219 3.546875 12.625 3.4375 C 11.992188 3.4375 11.390625 3.4375 10.761719 3.4375 C 10.804688 3.332031 10.824219 3.273438 10.855469 3.214844 C 11.359375 2.207031 11.871094 1.203125 12.371094 0.195312 C 12.441406 0.0507812 12.523438 -0.00390625 12.667969 0 C 13.136719 0.0117188 13.605469 0.0078125 14.078125 0 C 14.203125 0 14.28125 0.0390625 14.347656 0.171875 C 14.878906 1.238281 15.414062 2.304688 15.953125 3.367188 C 16.015625 3.488281 16.011719 3.582031 15.949219 3.699219 C 13.917969 7.734375 11.886719 11.773438 9.859375 15.8125 C 9.800781 15.929688 9.738281 15.992188 9.613281 15.988281 C 9.082031 15.980469 8.535156 16.011719 7.988281 15.988281 C 7.972656 14.855469 7.96875 13.699219 7.972656 12.59375 Z M 7.972656 12.59375 "/>
<path style=" stroke:none;fill-rule:nonzero;fill:rgb(23.137255%,50.980395%,96.470588%);fill-opacity:1;" d="M 7.980469 12.609375 C 7.988281 13.726562 7.988281 14.863281 7.988281 15.988281 C 7.433594 16.011719 6.878906 15.988281 6.324219 15.976562 C 6.257812 15.976562 6.171875 15.875 6.132812 15.792969 C 5.3125 14.179688 4.5 12.5625 3.6875 10.945312 C 2.476562 8.539062 1.269531 6.128906 0.0546875 3.726562 C -0.0195312 3.582031 -0.0195312 3.476562 0.0546875 3.335938 C 0.589844 2.285156 1.117188 1.234375 1.644531 0.179688 C 1.707031 0.0507812 1.777344 0 1.90625 0 C 2.394531 0.0078125 2.886719 0 3.375 0.0078125 C 3.445312 0.0117188 3.546875 0.0625 3.578125 0.128906 C 4.121094 1.183594 4.648438 2.242188 5.183594 3.300781 C 5.195312 3.328125 5.199219 3.355469 5.21875 3.421875 C 4.605469 3.421875 4.011719 3.421875 3.355469 3.421875 C 4.914062 6.519531 6.441406 9.554688 7.980469 12.609375 Z M 7.980469 12.609375 "/>
<path style=" stroke:none;fill-rule:nonzero;fill:rgb(98.431373%,98.431373%,98.431373%);fill-opacity:1;" d="M 6.6875 2.1875 C 6.324219 1.464844 5.96875 0.757812 5.597656 0.0195312 C 7.207031 0.0195312 8.78125 0.0195312 10.394531 0.0195312 C 9.59375 1.609375 8.804688 3.183594 7.996094 4.792969 C 7.550781 3.90625 7.121094 3.054688 6.6875 2.1875 Z M 6.6875 2.1875 "/>
</g>
</svg>
